<svg width="48" height="49" viewBox="0 0 48 49" fill="none" xmlns="http://www.w3.org/2000/svg">
<path d="M24.0002 0.197266C10.747 0.197266 0 11.2142 0 24.8049C0 35.6772 6.87679 44.9011 16.4128 48.155C17.6123 48.3828 18.0526 47.6212 18.0526 46.9712C18.0526 46.3844 18.0304 44.446 18.02 42.3898C11.3431 43.8783 9.93424 39.4864 9.93424 39.4864C8.84249 36.6421 7.26945 35.8858 7.26945 35.8858C5.09192 34.3585 7.43359 34.3899 7.43359 34.3899C9.84363 34.5635 11.1126 36.9257 11.1126 36.9257C13.2532 40.6877 16.7272 39.6001 18.0967 38.9713C18.3121 37.3809 18.9341 36.2953 19.6205 35.6808C14.2897 35.0586 8.6859 32.9486 8.6859 23.5196C8.6859 20.8331 9.62345 18.6379 11.1587 16.9146C10.9095 16.2948 10.088 13.792 11.3912 10.4025C11.3912 10.4025 13.4066 9.74113 17.993 12.9249C19.9074 12.3796 21.9606 12.1062 24.0002 12.0968C26.0398 12.1062 28.0946 12.3796 30.0126 12.9249C34.5934 9.74113 36.606 10.4025 36.606 10.4025C37.9123 13.792 37.0905 16.2948 36.8413 16.9146C38.3801 18.6379 39.3113 20.8331 39.3113 23.5196C39.3113 32.971 33.6968 35.0521 28.3525 35.6613C29.2133 36.4249 29.9804 37.9224 29.9804 40.2183C29.9804 43.5108 29.9526 46.1607 29.9526 46.9712C29.9526 47.626 30.3846 48.3934 31.6011 48.1517C41.132 44.8942 48 35.6735 48 24.8049C48 11.2142 37.2546 0.197266 24.0002 0.197266Z" fill="#F36748"/>
<path d="M9.16085 35.3594C9.10809 35.4805 8.92085 35.5168 8.75027 35.4337C8.57652 35.3542 8.47893 35.1892 8.53526 35.0677C8.58683 34.9431 8.77447 34.9084 8.94782 34.9919C9.12197 35.0714 9.22115 35.238 9.16085 35.3594Z" fill="#F36748"/>
<path d="M10.1312 36.4608C10.0169 36.5685 9.79358 36.5184 9.64205 36.3482C9.48535 36.1783 9.456 35.9512 9.57183 35.8418C9.68965 35.7341 9.90624 35.7845 10.0633 35.9544C10.22 36.1263 10.2506 36.3518 10.1312 36.4608Z" fill="#F36748"/>
<path d="M11.0757 37.8637C10.929 37.9674 10.689 37.8702 10.5406 37.6535C10.3938 37.4368 10.3938 37.177 10.5438 37.0729C10.6925 36.9688 10.929 37.0624 11.0793 37.2775C11.2257 37.4977 11.2257 37.7576 11.0757 37.8637Z" fill="#F36748"/>
<path d="M12.3698 39.2192C12.2385 39.3665 11.9588 39.3269 11.7541 39.126C11.5446 38.9295 11.4863 38.6507 11.618 38.5034C11.7509 38.3558 12.0322 38.3973 12.2385 38.5966C12.4463 38.7927 12.5098 39.0735 12.3698 39.2192Z" fill="#F36748"/>
<path d="M14.1549 40.0068C14.097 40.1976 13.8276 40.2844 13.5563 40.2033C13.2853 40.1197 13.108 39.8962 13.1628 39.7034C13.2191 39.5113 13.4896 39.4209 13.763 39.5077C14.0335 39.5908 14.2112 39.8127 14.1549 40.0068Z" fill="#F36748"/>
<path d="M16.1154 40.1525C16.1221 40.3534 15.892 40.52 15.6072 40.5237C15.3208 40.5301 15.0891 40.3675 15.0859 40.1698C15.0859 39.9669 15.3109 39.8019 15.5973 39.797C15.8821 39.7914 16.1154 39.9528 16.1154 40.1525Z" fill="#F36748"/>
<path d="M17.9397 39.8372C17.9738 40.0333 17.7759 40.2346 17.493 40.2883C17.2149 40.3399 16.9575 40.2189 16.9222 40.0244C16.8877 39.8235 17.0892 39.6221 17.3669 39.5701C17.6501 39.5201 17.9036 39.6379 17.9397 39.8372Z" fill="#F36748"/>
</svg>
