<svg width="16" height="14" viewBox="0 0 16 14" fill="none" xmlns="http://www.w3.org/2000/svg">
<path fill-rule="evenodd" clip-rule="evenodd" d="M3.32325 0.917358C2.41031 0.917358 1.73478 1.70582 1.76503 2.5609C1.79406 3.38239 1.75634 4.44634 1.48491 5.31399C1.2125 6.18408 0.752125 6.73545 0 6.80622V7.60523C0.752125 7.67615 1.2125 8.22725 1.48487 9.09746C1.75634 9.96511 1.79403 11.0291 1.765 11.8506C1.73475 12.7055 2.41028 13.4941 3.32337 13.4941H12.678C13.5909 13.4941 14.2663 12.7056 14.2361 11.8506C14.207 11.0291 14.2448 9.96511 14.5162 9.09746C14.7886 8.22725 15.2478 7.67594 16 7.60523V6.80622C15.2479 6.7353 14.7886 6.1842 14.5162 5.31399C14.2447 4.44646 14.207 3.38239 14.2361 2.5609C14.2663 1.70595 13.5909 0.917358 12.678 0.917358H3.32312H3.32325ZM10.8475 8.65916C10.8475 9.83656 9.95744 10.5506 8.48041 10.5506H5.96609C5.89417 10.5506 5.82519 10.5224 5.77434 10.4722C5.72348 10.4221 5.69491 10.354 5.69491 10.283V4.12845C5.69491 4.05749 5.72348 3.98942 5.77434 3.93924C5.82519 3.88906 5.89417 3.86086 5.96609 3.86086H8.46609C9.69769 3.86086 10.506 4.51914 10.506 5.52981C10.506 6.23918 9.96222 6.87424 9.2695 6.9855V7.0225C10.2125 7.12457 10.8475 7.76903 10.8475 8.65916ZM8.20625 4.70912H6.77262V6.70727H7.98009C8.91353 6.70727 9.42822 6.33638 9.42822 5.67344C9.42813 5.05217 8.98563 4.70912 8.20625 4.70912ZM6.77262 7.50008V9.70208H8.259C9.23088 9.70208 9.74566 9.31729 9.74566 8.59413C9.74566 7.87097 9.21644 7.49996 8.1965 7.49996H6.77262V7.50008Z" fill="#7952B3"/>
</svg>
