<svg width="52" height="53" viewBox="0 0 52 53" fill="none" xmlns="http://www.w3.org/2000/svg">
<path d="M25.8462 50.3258C39.101 50.3258 49.8462 39.5806 49.8462 26.3258C49.8462 13.071 39.101 2.32581 25.8462 2.32581C12.5914 2.32581 1.84619 13.071 1.84619 26.3258C1.84619 39.5806 12.5914 50.3258 25.8462 50.3258Z" fill="#FC521F"/>
<path d="M31.4862 37.3635L27.6725 35.1623L39.1456 28.5446C39.5856 28.2909 39.9999 27.9995 40.3856 27.6749C41.877 29.7984 42.0233 32.5943 40.6942 34.8972C39.4839 36.9803 37.2576 38.2632 34.8485 38.2658C33.673 38.2658 32.5113 37.9544 31.4862 37.3629V37.3635ZM30.5673 38.9532C31.0073 39.2075 31.4667 39.4212 31.9416 39.5932C30.8462 41.9441 28.4965 43.4686 25.8347 43.4686C22.1193 43.4686 19.0947 40.4475 19.0947 36.7344V23.4978L24.9159 26.8572V35.1629C24.9159 35.4909 25.0913 35.7938 25.3753 35.9578L30.5673 38.9532ZM16.8387 38.2646C14.4309 38.2622 12.2057 36.9802 10.9959 34.8983C10.0978 33.3532 9.8558 31.5128 10.3239 29.7881C10.7818 28.0598 11.9126 26.5868 13.4639 25.6978L17.2764 23.4978L17.277 36.7321C17.277 37.2401 17.3204 37.7435 17.409 38.2424C17.2193 38.2572 17.0285 38.2646 16.8387 38.2646ZM31.6747 21.9075L25.8553 25.2646L18.6553 21.1121C18.371 20.9486 18.0213 20.9486 17.737 21.1121L12.545 24.1069C12.105 24.3601 11.6902 24.6498 11.3039 24.9761C9.81359 22.8532 9.66788 20.0566 10.9959 17.7538C12.2058 15.6705 14.4319 14.3874 16.841 14.3846C18.0153 14.3846 19.1782 14.6978 20.2033 15.2886L31.6747 21.9075ZM25.8347 9.18292C29.5519 9.18292 32.5747 12.2041 32.5747 15.9189V20.3189L21.105 13.7018C20.6663 13.4477 20.2058 13.2331 19.729 13.0606C20.8239 10.7081 23.1747 9.18292 25.8347 9.18292ZM40.6936 17.7561C42.5507 20.9726 41.4445 25.0995 38.2256 26.9566L26.7542 33.5738V26.8584L33.9536 22.7046C34.2382 22.5406 34.4136 22.2378 34.4136 21.9098V15.9189C34.4136 15.4132 34.3679 14.9092 34.281 14.4126C36.8848 14.1957 39.3808 15.4971 40.6936 17.7561Z" fill="white"/>
</svg>
