<svg width="48" height="49" viewBox="0 0 48 49" fill="none" xmlns="http://www.w3.org/2000/svg">
<path d="M0 24.1973C0 10.9424 10.7452 0.197266 24 0.197266C37.2548 0.197266 48 10.9424 48 24.1973C48 37.4521 37.2548 48.1973 24 48.1973C10.7452 48.1973 0 37.4521 0 24.1973Z" fill="#F36748"/>
<path fill-rule="evenodd" clip-rule="evenodd" d="M17.3187 15.02C17.3187 16.5891 16.1376 17.8446 14.2411 17.8446H14.2064C12.3804 17.8446 11.2 16.5891 11.2 15.02C11.2 13.4177 12.4164 12.1973 14.277 12.1973C16.1376 12.1973 17.2834 13.4177 17.3187 15.02ZM16.9605 20.0752V36.4169H11.5215V20.0752H16.9605ZM36.5751 36.4169L36.5753 27.047C36.5753 22.0275 33.8921 19.6914 30.313 19.6914C27.4253 19.6914 26.1325 21.2775 25.4106 22.3902V20.0756H19.971C20.0427 21.609 19.971 36.4173 19.971 36.4173H25.4106V27.2907C25.4106 26.8023 25.4459 26.3151 25.5897 25.9654C25.9828 24.9897 26.8778 23.9795 28.3804 23.9795C30.3493 23.9795 31.1364 25.478 31.1364 27.674V36.4169H36.5751Z" fill="white"/>
</svg>
