<svg width="25" height="25" viewBox="0 0 25 25" fill="none" xmlns="http://www.w3.org/2000/svg">
<path fill-rule="evenodd" clip-rule="evenodd" d="M12.5 24.5C19.1274 24.5 24.5 19.1274 24.5 12.5C24.5 5.87258 19.1274 0.5 12.5 0.5C5.87258 0.5 0.5 5.87258 0.5 12.5C0.5 19.1274 5.87258 24.5 12.5 24.5ZM16.6458 17.3869C18.0201 17.3869 19.1342 15.2711 19.1342 12.6611C19.1342 10.0511 18.0201 7.93527 16.6458 7.93527C15.2715 7.93527 14.1574 10.0511 14.1574 12.6611C14.1574 15.2711 15.2715 17.3869 16.6458 17.3869ZM13.8989 12.5C13.8989 15.3471 11.5909 17.6552 8.74377 17.6552C5.89666 17.6552 3.58863 15.3471 3.58863 12.5C3.58863 9.65294 5.89666 7.34491 8.74377 7.34491C11.5909 7.34491 13.8989 9.65294 13.8989 12.5ZM20.5596 16.9683C21.03 16.9683 21.4114 15.0397 21.4114 12.6607C21.4114 10.2816 21.03 8.35305 20.5596 8.35305C20.0892 8.35305 19.7078 10.2816 19.7078 12.6607C19.7078 15.0397 20.0892 16.9683 20.5596 16.9683Z" fill="#F36748"/>
</svg>
