<svg width="17" height="17" viewBox="0 0 17 17" fill="none" xmlns="http://www.w3.org/2000/svg">
<path d="M9.01984 1.72669C8.66494 1.5271 8.20224 1.52799 7.84704 1.72669C6.06804 2.70847 4.289 3.69054 2.50967 4.67186C2.16344 4.85401 1.92991 5.22582 1.93364 5.61173V11.5437C1.93114 11.9372 2.1767 12.3126 2.53187 12.4922C3.04295 12.7641 3.53949 13.0636 4.05981 13.3174C4.66085 13.6128 5.41281 13.6781 6.02119 13.3701C6.51504 13.1148 6.73439 12.5471 6.73374 12.0253C6.73774 10.0676 6.73439 8.10988 6.73529 6.15213C6.74704 6.06513 6.68169 5.97213 6.58679 5.97423C6.35944 5.97063 6.13179 5.97213 5.90444 5.97363C5.81854 5.96553 5.73469 6.03688 5.74119 6.12323C5.73814 8.06833 5.74179 10.014 5.73934 11.9594C5.74429 12.2285 5.56249 12.4871 5.30316 12.578C4.70419 12.788 2.99458 11.6779 2.99458 11.6779C2.93184 11.6489 2.892 11.5808 2.89815 11.5132C2.89815 9.55613 2.89846 7.59898 2.89815 5.64218C2.88953 5.56329 2.93815 5.49223 3.0106 5.46002C4.78376 4.48403 6.55599 3.5056 8.32914 2.52901C8.39074 2.48791 8.47659 2.48803 8.53804 2.52931C10.3112 3.5056 12.0837 4.48314 13.8572 5.45917C13.9299 5.49133 13.9764 5.56358 13.969 5.64218C13.9687 7.59898 13.9696 9.55613 13.9684 11.513C13.9737 11.5822 13.9379 11.6493 13.8732 11.6797C12.1166 12.6504 10.34 13.5898 8.59934 14.5887C8.52339 14.6323 8.43734 14.6816 8.35224 14.6336C7.89449 14.3804 7.44229 14.1174 6.98604 13.8617C6.93644 13.8308 6.87329 13.8175 6.82154 13.8521C6.61699 13.9599 6.42459 14.0472 6.18969 14.1402C5.85979 14.2708 5.91249 14.3242 6.21004 14.4976C6.74359 14.7995 7.27804 15.1003 7.81159 15.4025C8.16284 15.6217 8.63479 15.6373 8.99734 15.4348C10.7766 14.4542 12.5554 13.4725 14.335 12.492C14.6892 12.3113 14.936 11.9374 14.9335 11.5437V5.61173C14.937 5.23365 14.7124 4.86847 14.3766 4.68363C12.5914 3.69707 10.8053 2.71265 9.01984 1.72669Z" fill="#8CC84B"/>
<path d="M11.7044 6.18041C11.0061 5.80681 10.1753 5.78691 9.39923 5.83576C8.83858 5.89116 8.24893 6.04586 7.84048 6.44776C7.42153 6.85176 7.33033 7.50416 7.52933 8.03156C7.67193 8.40426 8.03088 8.64661 8.40208 8.77481C8.88023 8.94361 9.38243 8.99581 9.88478 9.04801C10.343 9.09561 10.8013 9.14326 11.2417 9.27941C11.4216 9.33901 11.6311 9.43021 11.6862 9.62596C11.7371 9.85776 11.6813 10.1272 11.4931 10.2883C10.8953 10.7614 9.23243 10.6889 8.64178 10.3165C8.40298 10.1579 8.30008 9.87701 8.25823 9.60936C8.25358 9.52596 8.18643 9.44946 8.09588 9.45581C7.86913 9.45311 7.64238 9.45371 7.41563 9.45551C7.33653 9.44886 7.25428 9.50516 7.24993 9.58591C7.20333 10.8118 8.32918 11.3462 9.38543 11.4638C9.98888 11.5213 10.6056 11.518 11.1998 11.3885C11.6465 11.2868 12.0944 11.0995 12.4019 10.7555C12.7811 10.3373 12.8557 9.71476 12.6856 9.19391C12.5556 8.80526 12.1841 8.55596 11.8043 8.42771C11.2878 8.25061 10.6757 8.15541 10.2079 8.11086C9.52793 8.04611 8.71993 8.07256 8.52748 7.62576C8.45073 7.39181 8.51603 7.10131 8.73103 6.95741C9.29988 6.57156 10.4576 6.62281 11.0467 6.91106C11.3172 7.04651 11.474 7.32471 11.5387 7.60556C11.5507 7.68806 11.6062 7.77416 11.7017 7.77056C11.9269 7.77506 12.1521 7.77176 12.3772 7.77206C12.4546 7.77746 12.5393 7.73381 12.5544 7.65461C12.5448 7.06761 12.2451 6.46671 11.7044 6.18041Z" fill="#8CC84B"/>
</svg>
