<svg width="18" height="19" viewBox="0 0 18 19" fill="none" xmlns="http://www.w3.org/2000/svg">
<g clip-path="url(#clip0_340_4)">
<path d="M0.0529785 9.27462C0.0529785 10.7784 1.3722 12.1822 3.45195 12.9735C3.03664 15.3007 3.37757 17.1765 4.51616 17.9074C5.68646 18.6587 7.43 18.1387 9.08488 16.5285C10.698 18.0737 12.3283 18.6817 13.4659 17.9487C14.6351 17.1953 14.9907 15.1923 14.5639 12.7924C16.7301 11.9952 17.9418 10.7982 17.9418 9.27462C17.9418 7.80575 16.6202 6.53502 14.5685 5.74882C15.0279 3.24971 14.6386 1.41942 13.4529 0.658338C12.3097 -0.0754362 10.6604 0.564112 9.02364 2.14968C7.32074 0.466755 5.6878 -0.0470274 4.50329 0.716173C3.36118 1.45206 3.0353 3.36202 3.45195 5.7323C1.44237 6.51217 0.0529785 7.81169 0.0529785 9.27462Z" fill="white"/>
<path d="M14.134 6.52956C13.9649 6.46499 13.7944 6.40518 13.6226 6.35018C13.6511 6.22132 13.6774 6.09188 13.7016 5.96193C14.0887 3.87017 13.8356 2.18506 12.9712 1.63035C12.1425 1.09833 10.7871 1.65304 9.41816 2.97902C9.28327 3.10997 9.15137 3.2447 9.02259 3.38308C8.93636 3.29107 8.8486 3.20084 8.75936 3.11245C7.32469 1.69452 5.88665 1.09708 5.02318 1.65343C4.19521 2.18694 3.94997 3.77117 4.29849 5.75352C4.33317 5.94983 4.37232 6.14513 4.41591 6.33923C4.21244 6.40356 4.01592 6.47211 3.82791 6.54505C2.14597 7.19775 1.07178 8.22077 1.07178 9.28184C1.07178 10.3778 2.22485 11.4771 3.97683 12.1435C4.11889 12.1973 4.26213 12.2472 4.40642 12.293C4.35954 12.5021 4.31793 12.7126 4.28162 12.9243C3.94934 14.8722 4.20885 16.4189 5.03464 16.9491C5.88756 17.4966 7.31906 16.9339 8.71302 15.5776C8.8232 15.4704 8.93379 15.3567 9.04453 15.2375C9.18401 15.3873 9.32722 15.5327 9.47398 15.6736C10.8242 16.9669 12.1577 17.4891 12.9828 16.9575C13.8349 16.4084 14.1118 14.7469 13.7522 12.7253C13.7248 12.5709 13.6928 12.4132 13.657 12.2526C13.7575 12.2196 13.8562 12.1855 13.9524 12.1499C15.7737 11.4783 16.9586 10.3924 16.9586 9.28184C16.9586 8.21694 15.8499 7.18703 14.134 6.52956Z" fill="#53C1DE"/>
<path d="M13.7388 11.4329C13.652 11.4649 13.5628 11.4958 13.472 11.5258C13.2709 10.8173 12.9995 10.0639 12.6675 9.28559C12.9844 8.52568 13.2452 7.78197 13.4407 7.07801C13.6032 7.13044 13.7609 7.18562 13.913 7.24392C15.3831 7.80717 16.2799 8.6401 16.2799 9.28184C16.2799 9.96544 15.3113 10.8529 13.7389 11.4329H13.7388ZM13.0863 12.8721C13.2453 13.7659 13.268 14.5741 13.1627 15.2059C13.068 15.7737 12.8778 16.1521 12.6425 16.3037C12.1419 16.6263 11.0711 16.207 9.91649 15.101C9.7841 14.9742 9.65072 14.8388 9.51699 14.6956C9.96465 14.1506 10.412 13.517 10.8487 12.8134C11.6167 12.7376 12.3423 12.6136 13.0003 12.4443C13.0327 12.5898 13.0615 12.7325 13.0863 12.8721ZM6.48777 16.248C5.99863 16.4403 5.60904 16.4458 5.37358 16.2946C4.87241 15.973 4.66415 14.731 4.94827 13.0652C4.98206 12.8683 5.02075 12.6726 5.06429 12.4781C5.715 12.6383 6.43532 12.7536 7.20521 12.8231C7.64472 13.5115 8.10503 14.1443 8.56894 14.6985C8.47034 14.8047 8.36942 14.9081 8.26625 15.0087C7.64985 15.6085 7.03218 16.0339 6.48784 16.248H6.48777ZM4.19617 11.4287C3.4215 11.134 2.78176 10.7509 2.34323 10.333C1.94922 9.95738 1.75024 9.58447 1.75024 9.28184C1.75024 8.63798 2.61273 7.81664 4.05119 7.2584C4.23174 7.18864 4.41409 7.12478 4.59799 7.0669C4.79683 7.78666 5.05761 8.53922 5.37231 9.30023C5.05353 10.0726 4.78902 10.8371 4.58836 11.5653C4.45664 11.5234 4.32588 11.4778 4.19617 11.4287ZM4.96438 5.60843C4.66577 3.90993 4.86404 2.62872 5.36303 2.30723C5.89457 1.96476 7.06979 2.4531 8.30851 3.67734C8.38768 3.7556 8.4672 3.83754 8.54686 3.9223C8.08535 4.47396 7.62925 5.102 7.19354 5.78647C6.44636 5.86356 5.7311 5.98737 5.07357 6.1532C5.03306 5.97263 4.99665 5.79096 4.96438 5.60835V5.60843ZM11.8172 7.49193C11.6619 7.19332 11.5009 6.89847 11.3341 6.60758C11.8411 6.6788 12.3267 6.7735 12.7827 6.8894C12.6458 7.37783 12.4752 7.88856 12.2742 8.41212C12.1274 8.10204 11.9751 7.79524 11.8172 7.49193ZM9.02264 4.46214C9.33566 4.83959 9.64917 5.2611 9.95755 5.71838C9.33201 5.68548 8.70542 5.68532 8.07986 5.71791C8.38852 5.26486 8.7047 4.84397 9.02264 4.46214ZM6.21012 7.4971C6.05427 7.798 5.90475 8.10291 5.76169 8.41157C5.56405 7.88981 5.39495 7.37681 5.25686 6.88142C5.71015 6.76849 6.19353 6.67622 6.69715 6.60617C6.52857 6.89886 6.36618 7.19592 6.21012 7.4971ZM6.71164 12.0114C6.19135 11.9468 5.70066 11.8592 5.24751 11.7494C5.38778 11.2452 5.5606 10.7212 5.76246 10.1883C5.90613 10.4971 6.0563 10.8022 6.21286 11.1033C6.37261 11.4104 6.53892 11.7132 6.71164 12.0114ZM9.04141 14.1549C8.71975 13.7685 8.39893 13.3412 8.08556 12.8816C8.38972 12.8949 8.69985 12.9016 9.01505 12.9016C9.33889 12.9016 9.65901 12.8936 9.97407 12.8779C9.66471 13.3459 9.35232 13.7739 9.04141 14.1549ZM12.2807 10.1611C12.4931 10.6998 12.6721 11.2211 12.8142 11.7167C12.3536 11.8337 11.8563 11.9279 11.3322 11.9979C11.5002 11.7016 11.6628 11.4016 11.82 11.098C11.9798 10.7896 12.1334 10.4772 12.2807 10.1611ZM11.2321 10.7207C10.9914 11.186 10.7372 11.6425 10.4699 12.0894C9.99854 12.1269 9.51143 12.1463 9.01505 12.1463C8.5207 12.1463 8.03979 12.1291 7.57666 12.0957C7.30241 11.6498 7.04341 11.1925 6.80023 10.7248C6.55818 10.2596 6.33209 9.78431 6.12244 9.29999C6.33155 8.81553 6.55696 8.33999 6.79819 7.87439V7.87455C7.03934 7.40885 7.2963 6.95351 7.5685 6.50952C8.04098 6.46977 8.52541 6.44895 9.01512 6.44895C9.50701 6.44895 9.99207 6.46992 10.4644 6.50999C10.7339 6.9533 10.9892 7.40705 11.2299 7.8704C11.4719 8.33497 11.7003 8.80817 11.9148 9.28927C11.7025 9.77527 11.4749 10.2527 11.2321 10.7207H11.2321ZM12.6321 2.28477C13.1641 2.6263 13.371 4.00345 13.0368 5.80948C13.0148 5.92713 12.991 6.04433 12.9653 6.16103C12.3062 5.99175 11.5905 5.86575 10.8411 5.78749C10.4046 5.09558 9.95228 4.46644 9.49822 3.9219C9.6172 3.79423 9.73901 3.66986 9.86355 3.54891C11.0364 2.41272 12.1326 1.96413 12.6321 2.28477Z" fill="white"/>
<path d="M9.01507 7.70276C9.7986 7.70276 10.4337 8.40977 10.4337 9.28183C10.4337 10.154 9.7986 10.861 9.01507 10.861C8.23161 10.861 7.59644 10.154 7.59644 9.28183C7.59644 8.40977 8.23161 7.70276 9.01507 7.70276Z" fill="#53C1DE"/>
</g>
<defs>
<clipPath id="clip0_340_4">
<rect width="18" height="18" fill="white" transform="translate(0 0.294189)"/>
</clipPath>
</defs>
</svg>
