<svg width="13" height="17" viewBox="0 0 13 17" fill="none" xmlns="http://www.w3.org/2000/svg">
<path d="M0.556889 14.8904L0.0652687 1.79095C0.0490324 1.35833 0.380753 0.991685 0.812837 0.96468L11.9548 0.268305C12.3946 0.240816 12.7735 0.57507 12.801 1.01488C12.802 1.03145 12.8025 1.04805 12.8025 1.06465V15.3388C12.8025 15.7795 12.4453 16.1367 12.0046 16.1367C11.9927 16.1367 11.9807 16.1365 11.9688 16.1359L1.31843 15.6576C0.903639 15.6389 0.572461 15.3053 0.556889 14.8904Z" fill="#FF4785"/>
<mask id="mask0_3440_5" style="mask-type:luminance" maskUnits="userSpaceOnUse" x="0" y="0" width="13" height="17">
<path d="M0.556889 14.8904L0.0652687 1.79095C0.0490324 1.35833 0.380753 0.991685 0.812837 0.96468L11.9548 0.268305C12.3946 0.240816 12.7735 0.57507 12.801 1.01488C12.802 1.03145 12.8025 1.04805 12.8025 1.06465V15.3388C12.8025 15.7795 12.4453 16.1367 12.0046 16.1367C11.9927 16.1367 11.9807 16.1365 11.9688 16.1359L1.31843 15.6576C0.903639 15.6389 0.572461 15.3053 0.556889 14.8904Z" fill="white"/>
</mask>
<g mask="url(#mask0_3440_5)">
<path d="M9.47054 2.2174L9.54665 0.386948L11.0768 0.266724L11.1427 2.1544C11.145 2.2201 11.0936 2.27522 11.0279 2.27751C10.9998 2.27849 10.9722 2.26947 10.9501 2.25206L10.36 1.78722L9.6614 2.31717C9.60903 2.3569 9.53437 2.34665 9.49464 2.29428C9.47791 2.27223 9.4694 2.24505 9.47054 2.2174ZM7.51365 6.24834C7.51365 6.55877 9.60467 6.40999 9.88537 6.19194C9.88537 4.07798 8.75107 2.96713 6.67398 2.96713C4.59688 2.96713 3.43312 4.09526 3.43312 5.78747C3.43312 8.73472 7.41054 8.79113 7.41054 10.3987C7.41054 10.85 7.18957 11.1179 6.70344 11.1179C6.07 11.1179 5.81957 10.7944 5.84903 9.69447C5.84903 9.45586 3.43312 9.38146 3.35946 9.69447C3.17191 12.36 4.83258 13.1288 6.7329 13.1288C8.5743 13.1288 10.018 12.1473 10.018 10.3705C10.018 7.21174 5.98161 7.29635 5.98161 5.73106C5.98161 5.09648 6.45301 5.01187 6.7329 5.01187C7.02752 5.01187 7.55785 5.0638 7.51365 6.24834Z" fill="white"/>
</g>
</svg>
